<?xml version="1.0" encoding="UTF-8"?>
<!DOCTYPE svg PUBLIC "-//W3C//DTD SVG 1.1//EN" "http://www.w3.org/Graphics/SVG/1.1/DTD/svg11.dtd">
<!-- Creator: CorelDRAW 2018 (64 Bit Versión de evaluación) -->
<svg xmlns="http://www.w3.org/2000/svg" xml:space="preserve" width="59mm" height="58.8644mm" version="1.1" style="shape-rendering:geometricPrecision; text-rendering:geometricPrecision; image-rendering:optimizeQuality; fill-rule:evenodd; clip-rule:evenodd"
viewBox="0 0 4856.62 4845.46"
 xmlns:xlink="http://www.w3.org/1999/xlink">
 <defs>
  <style type="text/css">
   <![CDATA[
    .str0 {stroke:#373435;stroke-width:82.32;stroke-miterlimit:22.9256}
    .str1 {stroke:#373435;stroke-width:82.32;stroke-miterlimit:22.9256}
    .fil0 {fill:#FBAB3A}
    .fil1 {fill:#ED3237;fill-rule:nonzero}
   ]]>
  </style>
 </defs>
 <g id="Capa_x0020_1">
  <metadata id="CorelCorpID_0Corel-Layer"/>
  <path class="fil0 str0" d="M2673.25 53.63l80.36 383.99c133.44,21.7 262.45,56.53 385.71,103.12l261.65 -292.44c150.23,67.3 292.15,149.77 423.97,245.36l-122.41 372.74c103.09,84.49 197.61,179.04 282.13,282.13l372.73 -122.42c95.61,131.8 178.04,273.75 245.36,423.97l-67.95 60.8 -988.34 0c-264.59,-324.04 -667.18,-530.98 -1118.15,-530.98 -450.97,0 -853.56,206.94 -1118.15,530.98l-988.34 0 -67.96 -60.8c67.31,-150.23 149.77,-292.15 245.37,-423.97l372.73 122.42c84.5,-103.1 179.04,-197.62 282.13,-282.13l-122.41 -372.74c131.79,-95.6 273.75,-178.04 423.97,-245.36l261.65 292.44c123.26,-46.61 252.29,-81.38 385.71,-103.12l80.36 -383.99c80.53,-8.24 162.24,-12.47 244.95,-12.47 82.7,0 164.41,4.24 244.95,12.47zm1851.52 3271.99l77.98 69.77c-67.3,150.23 -149.77,292.15 -245.36,423.97l-372.73 -122.42c-84.5,103.1 -179.04,197.62 -282.13,282.13l122.41 372.74c-131.79,95.6 -273.75,178.04 -423.97,245.36l-261.65 -292.44c-123.26,46.61 -252.29,81.38 -385.71,103.12l-80.36 383.99c-80.53,8.24 -162.24,12.47 -244.95,12.47 -82.7,0 -164.41,-4.24 -244.95,-12.47l-80.36 -383.99c-133.44,-21.7 -262.45,-56.53 -385.71,-103.12l-261.65 292.44c-150.23,-67.3 -292.16,-149.77 -423.97,-245.36l122.41 -372.74c-103.09,-84.49 -197.61,-179.04 -282.13,-282.13l-372.73 122.42c-95.61,-131.8 -178.04,-273.75 -245.37,-423.97l77.99 -69.77 971.09 0c264.45,329.18 670.26,539.96 1125.37,539.96 455.11,0 860.92,-210.78 1125.37,-539.96l971.09 0z"/>
  <path class="fil1 str1" d="M278.73 2529.47c231.32,211.12 516.82,168.43 516.82,339.21 0,90.14 -114.62,116.24 -160.47,116.24 -383.44,0 -358.43,-377.17 -506.4,-377.17 -62.52,0 -87.53,64.05 -87.53,128.09 0,120.98 47.93,372.43 147.96,436.48 118.78,73.53 354.27,113.86 491.81,113.86 485.55,0 685.61,-313.12 685.61,-590.66 0,-177.91 -64.6,-296.52 -193.8,-393.77 -241.74,-182.66 -527.24,-132.84 -527.24,-320.24 0,-85.39 68.77,-118.61 133.37,-118.61 216.74,0 298.01,270.42 437.63,270.42 77.1,0 122.95,-80.65 122.95,-161.31 0,-199.25 -158.38,-381.91 -229.23,-381.91 -43.77,0 -72.94,33.21 -102.11,33.21 -31.26,0 -181.31,-66.42 -314.68,-66.42 -404.28,0 -612.68,306.01 -612.68,552.72 0,170.79 83.36,315.49 197.98,419.87zm1831.78 365.31c125.05,320.24 141.71,315.5 175.05,320.24 66.69,9.49 141.71,-260.93 187.56,-370.05 50.02,-120.98 116.7,-329.73 181.31,-329.73 72.94,0 31.26,408.01 22.92,448.33 -14.59,75.91 -108.37,90.14 -108.37,173.17 0,151.82 285.5,142.33 370.94,142.33 91.7,0 377.19,7.11 377.19,-151.81 0,-106.75 -125.04,-68.8 -131.29,-241.96 -8.34,-220.61 -20.84,-481.55 -20.84,-517.13 0,-106.75 14.59,-386.66 31.26,-453.08 20.83,-80.65 114.61,-99.63 114.61,-194.51 0,-149.44 -208.39,-156.56 -300.08,-156.56 -275.07,0 -277.16,71.16 -383.45,294.15 -75.01,156.56 -160.46,443.59 -225.06,426.99 -91.7,-23.72 -220.9,-412.75 -293.84,-552.71 -62.51,-120.98 -58.35,-168.43 -302.16,-168.43 -166.72,0 -360.53,33.21 -360.53,168.43 0,97.26 118.78,113.86 139.62,163.68 22.92,54.56 31.26,128.09 31.26,270.42 0,343.96 -18.76,564.57 -35.43,763.83 -16.68,194.51 -141.71,83.02 -141.71,218.23 0,123.35 189.65,130.47 262.59,130.47 81.27,0 304.25,-4.74 304.25,-139.95 0,-128.1 -133.38,-9.49 -133.38,-263.31 0,-78.28 -20.83,-391.4 43.76,-391.4 37.51,0 60.44,71.16 72.94,102l120.86 308.38zm2223.57 -785.18c0,144.69 -54.18,263.3 -191.72,263.3 -112.53,0 -93.77,-54.56 -93.77,-104.37l0 -355.83c0,-47.45 -2.09,-75.91 79.18,-75.91 139.63,0 206.32,123.36 206.32,272.8zm-764.8 768.57c0,194.52 -152.13,113.87 -152.13,244.33 0,154.19 308.42,156.56 395.95,156.56 93.78,0 393.86,-7.12 393.86,-161.31 0,-137.58 -152.13,-14.23 -158.38,-310.75l0 -137.59c0,-26.09 8.33,-37.95 33.34,-37.95 56.26,0 118.79,11.86 181.31,11.86 289.66,0 552.24,-189.78 552.24,-543.23 0,-355.83 -272.99,-543.23 -556.4,-543.23 -87.53,0 -270.92,33.21 -573.09,33.21 -52.11,0 -102.11,-4.74 -154.21,-4.74 -64.61,0 -156.3,21.34 -156.3,116.23 0,149.44 193.81,71.17 193.81,249.08l0 927.51z"/>
 </g>
</svg>
