<?xml version="1.0" encoding="UTF-8"?>
<!DOCTYPE svg PUBLIC "-//W3C//DTD SVG 1.1//EN" "http://www.w3.org/Graphics/SVG/1.1/DTD/svg11.dtd">
<!-- Creator: CorelDRAW 2018 (64 Bit Versión de evaluación) -->
<svg xmlns="http://www.w3.org/2000/svg" xml:space="preserve" width="124.446mm" height="31.9801mm" version="1.1" style="shape-rendering:geometricPrecision; text-rendering:geometricPrecision; image-rendering:optimizeQuality; fill-rule:evenodd; clip-rule:evenodd"
viewBox="0 0 12972.38 3333.65"
 xmlns:xlink="http://www.w3.org/1999/xlink">
 <defs>
  <style type="text/css">
   <![CDATA[
    .fil0 {fill:#FEFEFE;fill-rule:nonzero}
   ]]>
  </style>
 </defs>
 <g id="Capa_x0020_1">
  <metadata id="CorelCorpID_0Corel-Layer"/>
  <g id="_2368154614992">
   <path class="fil0" d="M1.53 756.63c0,413.26 282.18,754.56 626.7,754.56 193.59,0 308.42,-119.24 364.2,-119.24 82.04,0 157.5,-189.16 157.5,-279.63 0,-51.4 -22.96,-121.31 -70.54,-121.31 -50.86,0 -82.03,141.87 -290.39,141.87 -229.67,0 -359.28,-259.06 -359.28,-563.36 0,-113.08 52.5,-261.11 178.83,-261.11 292.01,0 249.36,363.92 418.33,363.92 96.81,0 152.59,-98.69 152.59,-215.88 0,-228.22 -88.59,-357.75 -157.5,-357.75 -27.89,0 -37.74,14.39 -73.83,14.39 -42.65,0 -146,-100.74 -306.78,-100.74 -323.19,0 -639.82,322.79 -639.82,744.28z"/>
   <path id="1" class="fil0" d="M1574.85 41.12c-67.27,0 -205.07,-20.56 -205.07,104.86 0,145.98 124.68,-16.45 136.17,298.13 16.41,372.14 14.77,335.14 -4.92,709.33 -11.48,217.94 -123.04,127.48 -123.04,240.56 0,26.73 1.64,88.41 109.91,88.41l674.27 0c55.78,0 101.72,6.17 137.81,10.28 34.45,6.17 60.7,12.34 72.19,12.34 65.62,0 154.21,-250.84 154.21,-390.65 0,-57.56 -26.25,-131.58 -78.74,-131.58 -134.53,0 -39.38,289.91 -375.14,289.91 -172.81,0 -189.22,14.39 -189.22,-285.79 0,-65.8 -1.64,-143.93 67.54,-143.93 165.69,0 63.98,215.88 165.69,215.88 98.16,0 109.65,-246.73 109.65,-331.02 0,-80.19 -6.56,-312.53 -101.44,-312.53 -116.48,0 -22.97,228.23 -147.66,228.23 -100.34,0 -105.27,-4.12 -105.27,-123.36 0,-236.45 -18.03,-277.57 164.61,-277.57 311.16,0 206.17,197.38 335.77,197.38 63.98,0 85.31,-80.18 85.31,-148.03 0,-90.46 -39.38,-291.96 -132.89,-291.96 -26.25,0 -57.42,41.12 -276.71,41.12l-473.04 0z"/>
   <path id="2" class="fil0" d="M3095.68 41.12c-65.63,0 -109.92,-8.22 -141.09,-14.4 -31.18,-8.21 -49.22,-14.39 -60.7,-14.39 -93.51,0 -211.64,228.22 -211.64,402.98 0,74.02 37.74,148.04 101.72,148.04 132.89,0 168.98,-242.61 242.8,-242.61 22.97,0 57.43,-2.06 50.86,213.82l-13.12 454.39c-1.64,51.4 -8.2,174.76 -24.6,217.94 -32.82,78.13 -134.53,34.95 -134.53,143.93 0,158.31 306.79,154.2 390.46,154.2 306.79,0 337.96,-90.47 337.96,-154.2 0,-143.93 -150.93,-26.73 -150.93,-271.4l0 -631.2c0,-16.45 -6.57,-127.47 57.42,-127.47 83.67,0 82.03,242.61 224.75,242.61 83.67,0 126.33,-67.85 126.33,-170.65 0,-222.05 -132.89,-380.37 -196.87,-380.37 -31.18,0 -44.3,6.17 -67.27,14.39 -24.6,6.17 -57.42,14.4 -127.96,14.4l-403.58 0z"/>
   <path id="3" class="fil0" d="M4813.35 491.39c0,125.42 -42.66,228.23 -150.93,228.23 -88.59,0 -73.82,-47.29 -73.82,-90.47l0 -308.4c0,-41.12 -1.65,-65.8 62.34,-65.8 109.92,0 162.42,106.91 162.42,236.44zm-602.1 666.15c0,168.6 -119.75,98.7 -119.75,211.78 0,133.64 242.8,135.7 311.7,135.7 73.83,0 310.08,-6.17 310.08,-139.82 0,-119.24 -119.76,-12.33 -124.68,-269.34l0 -119.25c0,-22.61 6.56,-32.89 26.25,-32.89 44.29,0 93.51,10.28 142.73,10.28 228.04,0 434.76,-164.48 434.76,-470.84 0,-308.4 -214.91,-470.83 -438.04,-470.83 -68.9,0 -213.28,28.78 -451.16,28.78 -41.01,0 -80.39,-4.11 -121.4,-4.11 -50.86,0 -123.05,18.5 -123.05,100.74 0,129.53 152.57,61.68 152.57,215.88l0 803.91z"/>
   <path id="4" class="fil0" d="M5894.5 363.93c3.27,-63.74 1.64,-111.03 62.34,-111.03 95.15,0 114.84,102.8 114.84,203.54 0,127.48 -34.45,201.5 -141.09,201.5 -54.14,0 -45.94,-45.24 -42.66,-98.7l6.57 -195.32zm-387.18 690.82c0,267.29 -123.04,193.27 -123.04,300.18 0,150.1 232.96,150.1 311.71,150.1 265.76,0 306.78,-55.52 306.78,-129.53 0,-98.7 -83.67,-69.9 -96.8,-164.48 -8.2,-57.57 -11.48,-139.82 -11.48,-199.44 0,-129.52 13.11,-135.69 49.21,-135.69 90.23,0 118.13,92.52 136.16,187.09 50.87,271.4 83.68,460.56 346.18,460.56 185.38,0 260.85,-82.25 260.85,-160.38 0,-125.41 -106.65,-10.28 -126.33,-201.49 -22.96,-222.05 -73.82,-316.63 -188.67,-370.09 -19.69,-10.28 -41.02,-18.5 -41.02,-49.35 0,-24.67 11.49,-30.83 26.26,-41.11 91.87,-55.52 139.44,-174.77 139.44,-298.13 0,-273.46 -214.91,-376.26 -400.3,-376.26 -52.51,0 -106.65,4.12 -159.13,6.17 -54.14,4.12 -106.64,8.22 -159.13,8.22 -32.82,0 -67.27,-4.11 -100.08,-8.22 -34.45,-2.05 -67.27,-6.17 -101.72,-6.17 -65.62,0 -193.59,14.4 -193.59,127.48 0,127.48 124.68,-4.11 124.68,314.58l0 585.96z"/>
   <path id="5" class="fil0" d="M7497.35 1511.19c334.68,0 646.38,-291.95 646.38,-734 0,-265.22 -173.9,-764.84 -626.7,-764.84 -357.64,0 -634.89,308.41 -634.89,744.28 0,437.94 269.05,754.56 615.21,754.56zm224.75 -526.35c0,111.03 -42.66,220 -142.73,220 -177.19,0 -275.61,-491.39 -275.61,-666.15 0,-100.75 45.94,-220 137.81,-220 191.95,0 280.53,479.06 280.53,666.15z"/>
   <path id="6" class="fil0" d="M9067.38 855.31c182.11,183 406.86,145.98 406.86,294.01 0,78.13 -90.23,100.75 -126.32,100.75 -301.87,0 -282.18,-326.91 -398.66,-326.91 -49.21,0 -68.9,55.52 -68.9,111.03 0,104.86 37.72,322.79 116.48,378.31 93.5,63.73 278.9,98.69 387.17,98.69 382.26,0 539.75,-271.39 539.75,-511.95 0,-154.2 -50.86,-257.01 -152.58,-341.3 -190.3,-158.32 -415.06,-115.14 -415.06,-277.57 0,-74.01 54.13,-102.79 104.99,-102.79 170.62,0 234.61,234.39 344.52,234.39 60.7,0 96.8,-69.9 96.8,-139.82 0,-172.71 -124.68,-331.02 -180.46,-331.02 -34.45,0 -57.42,28.78 -80.39,28.78 -24.6,0 -142.73,-57.56 -247.73,-57.56 -318.27,0 -482.31,265.23 -482.31,479.05 0,148.03 65.61,273.46 155.84,363.92z"/>
   <path id="7" class="fil0" d="M10653.83 1171.94c98.42,277.56 111.55,273.46 137.81,277.56 52.5,8.22 111.55,-226.16 147.65,-320.74 39.37,-104.86 91.88,-285.79 142.73,-285.79 57.42,0 24.61,353.64 18.05,388.59 -11.49,65.8 -85.32,78.13 -85.32,150.09 0,131.59 224.77,123.37 292.03,123.37 72.18,0 296.94,6.16 296.94,-131.59 0,-92.51 -98.45,-59.63 -103.36,-209.71 -6.57,-191.21 -16.41,-417.37 -16.41,-448.22 0,-92.51 11.48,-335.14 24.61,-392.7 16.4,-69.9 90.23,-86.35 90.23,-168.6 0,-129.53 -164.07,-135.69 -236.24,-135.69 -216.56,0 -218.2,61.68 -301.87,254.94 -59.06,135.7 -126.32,384.48 -177.18,370.09 -72.19,-20.56 -173.91,-357.76 -231.32,-479.06 -49.21,-104.86 -45.94,-145.97 -237.88,-145.97 -131.25,0 -283.82,28.78 -283.82,145.97 0,84.3 93.51,98.7 109.91,141.87 18.05,47.28 24.61,111.03 24.61,234.39 0,298.13 -14.77,489.34 -27.88,662.05 -13.12,168.59 -111.57,71.96 -111.57,189.16 0,106.91 149.29,113.08 206.71,113.08 63.99,0 239.53,-4.12 239.53,-121.31 0,-111.03 -104.99,-8.22 -104.99,-228.23 0,-67.85 -16.41,-339.24 34.45,-339.24 29.53,0 47.58,61.68 57.42,88.41l95.16 267.29z"/>
   <path id="8" class="fil0" d="M12548.7 491.39c0,125.42 -42.66,228.23 -150.94,228.23 -88.58,0 -73.82,-47.29 -73.82,-90.47l0 -308.4c0,-41.12 -1.64,-65.8 62.35,-65.8 109.91,0 162.42,106.91 162.42,236.44zm-602.1 666.15c0,168.6 -119.76,98.7 -119.76,211.78 0,133.64 242.81,135.7 311.71,135.7 73.82,0 310.07,-6.17 310.07,-139.82 0,-119.24 -119.76,-12.33 -124.68,-269.34l0 -119.25c0,-22.61 6.57,-32.89 26.25,-32.89 44.29,0 93.51,10.28 142.74,10.28 228.04,0 434.75,-164.48 434.75,-470.84 0,-308.4 -214.91,-470.83 -438.03,-470.83 -68.9,0 -213.28,28.78 -451.16,28.78 -41.02,0 -80.39,-4.11 -121.41,-4.11 -50.85,0 -123.04,18.5 -123.04,100.74 0,129.53 152.57,61.68 152.57,215.88l0 803.91z"/>
   <path class="fil0" d="M247.69 2114.97l71.66 27.07c-11.01,49.64 -29.34,86.47 -54.94,110.6 -25.59,24.03 -58,36.1 -97.32,36.1 -48.7,0 -88.71,-20.46 -120.1,-61.39 -31.3,-40.93 -46.99,-96.85 -46.99,-167.88 0,-75.03 15.77,-133.37 47.24,-174.92 31.48,-41.56 72.94,-62.34 124.28,-62.34 44.87,0 81.29,16.38 109.27,49 16.72,19.31 29.17,47.01 37.53,83.21l-73.19 21.41c-4.35,-23.3 -13.38,-41.76 -27.12,-55.3 -13.81,-13.53 -30.52,-20.25 -50.15,-20.25 -27.21,0 -49.3,11.97 -66.18,35.99 -16.97,23.92 -25.41,62.75 -25.41,116.47 0,56.87 8.35,97.49 24.99,121.62 16.72,24.24 38.38,36.31 65.08,36.31 19.71,0 36.68,-7.66 50.84,-23.09 14.16,-15.43 24.39,-39.56 30.53,-72.61z"/>
   <polygon id="1" class="fil0" points="382.88,2281.19 382.88,1830.4 654.11,1830.4 654.11,1906.58 457.09,1906.58 457.09,2006.69 640.3,2006.69 640.3,2082.87 457.09,2082.87 457.09,2205.01 661.28,2205.01 661.28,2281.19 "/>
   <polygon id="2" class="fil0" points="724.23,2281.19 724.23,1830.4 796.04,1830.4 946.84,2132.5 946.84,1830.4 1015.41,1830.4 1015.41,2281.19 941.3,2281.19 792.81,1984.87 792.81,2281.19 "/>
   <polygon id="3" class="fil0" points="1176.21,2281.19 1176.21,1906.58 1067.71,1906.58 1067.71,1830.4 1358.39,1830.4 1358.39,1906.58 1250.41,1906.58 1250.41,2281.19 "/>
   <path id="4" class="fil0" d="M1406.41 2281.19l0 -450.78 155.83 0c39.15,0 67.64,4.1 85.38,12.18 17.81,8.08 31.98,22.45 42.65,43.12 10.66,20.78 16.03,44.39 16.03,71.04 0,33.89 -8.02,61.8 -24.14,83.84 -16.12,22.04 -40.17,35.88 -72.24,41.65 15.95,11.44 29.08,24.03 39.4,37.78 10.4,13.74 24.39,38.19 41.97,73.24l44.69 87.93 -88.45 0 -53.05 -98.42c-19.02,-34.94 -32.06,-56.98 -39.15,-66.1 -6.99,-9.03 -14.42,-15.32 -22.26,-18.68 -7.93,-3.36 -20.39,-5.03 -37.44,-5.03l-15.02 0 0 188.24 -74.2 0zm74.2 -260.02l54.77 0c35.47,0 57.56,-1.89 66.43,-5.56 8.79,-3.67 15.78,-10.07 20.73,-19.1 5.03,-9.03 7.51,-20.36 7.51,-33.89 0,-15.22 -3.34,-27.39 -9.89,-36.84 -6.57,-9.33 -15.87,-15.21 -27.81,-17.63 -6.06,-1.04 -24.05,-1.57 -53.99,-1.57l-57.75 0 0 114.58z"/>
   <path id="5" class="fil0" d="M1760.64 2058.53c0,-45.96 5.63,-84.57 16.8,-115.84 8.27,-22.97 19.7,-43.65 34.12,-61.91 14.42,-18.25 30.2,-31.79 47.34,-40.71 22.86,-11.86 49.21,-17.85 79.07,-17.85 54.08,0 97.24,20.67 129.74,61.91 32.41,41.34 48.61,98.74 48.61,172.3 0,72.92 -16.12,130 -48.26,171.13 -32.16,41.24 -75.23,61.8 -129.06,61.8 -54.5,0 -97.91,-20.46 -130.07,-61.49 -32.15,-40.91 -48.27,-97.37 -48.27,-169.35zm76.25 -3.04c0,51.1 9.63,89.82 28.83,116.26 19.19,26.34 43.58,39.56 73.09,39.56 29.6,0 53.83,-13.11 72.84,-39.25 18.93,-26.23 28.4,-65.47 28.4,-117.83 0,-51.72 -9.2,-90.35 -27.71,-115.74 -18.43,-25.5 -42.91,-38.19 -73.53,-38.19 -30.53,0 -55.19,12.92 -73.87,38.62 -18.68,25.81 -28.06,64.63 -28.06,116.57z"/>
   <path id="6" class="fil0" d="M2316.24 1830.4l134.93 0c30.46,0 53.65,2.84 69.6,8.61 21.41,7.77 39.84,21.61 55.1,41.55 15.35,19.83 26.96,44.18 34.97,73.03 7.93,28.75 11.94,64.32 11.94,106.5 0,37.14 -3.75,69.04 -11.26,95.9 -9.12,32.85 -22.17,59.4 -39.14,79.64 -12.8,15.43 -30.1,27.39 -51.86,35.99 -16.29,6.4 -38.04,9.55 -65.34,9.55l-138.94 0 0 -450.78zm74.2 76.18l0 298.42 55.02 0c20.57,0 35.4,-1.47 44.52,-4.31 12.04,-3.67 21.92,-9.97 29.77,-18.77 7.94,-8.82 14.32,-23.3 19.27,-43.45 5.03,-20.14 7.51,-47.74 7.51,-82.58 0,-34.84 -2.47,-61.48 -7.51,-80.16 -4.95,-18.68 -11.94,-33.16 -20.89,-43.66 -8.96,-10.38 -20.31,-17.52 -34.12,-21.19 -10.24,-2.84 -30.45,-4.31 -60.47,-4.31l-33.11 0z"/>
   <polygon id="7" class="fil0" points="2685.82,2281.19 2685.82,1830.4 2957.06,1830.4 2957.06,1906.58 2760.03,1906.58 2760.03,2006.69 2943.24,2006.69 2943.24,2082.87 2760.03,2082.87 2760.03,2205.01 2964.22,2205.01 2964.22,2281.19 "/>
   <polygon id="8" class="fil0" points="3169.35,2281.19 3169.35,1830.4 3440.59,1830.4 3440.59,1906.58 3243.55,1906.58 3243.55,2006.69 3426.77,2006.69 3426.77,2082.87 3243.55,2082.87 3243.55,2205.01 3447.75,2205.01 3447.75,2281.19 "/>
   <path id="9" class="fil0" d="M3510.7 1830.4l134.93 0c30.46,0 53.65,2.84 69.6,8.61 21.41,7.77 39.83,21.61 55.1,41.55 15.35,19.83 26.96,44.18 34.97,73.03 7.93,28.75 11.94,64.32 11.94,106.5 0,37.14 -3.75,69.04 -11.26,95.9 -9.13,32.85 -22.17,59.4 -39.15,79.64 -12.79,15.43 -30.1,27.39 -51.85,35.99 -16.3,6.4 -38.04,9.55 -65.34,9.55l-138.94 0 0 -450.78zm74.2 76.18l0 298.42 55.02 0c20.56,0 35.4,-1.47 44.52,-4.31 12.03,-3.67 21.92,-9.97 29.77,-18.77 7.93,-8.82 14.32,-23.3 19.27,-43.45 5.03,-20.14 7.51,-47.74 7.51,-82.58 0,-34.84 -2.47,-61.48 -7.51,-80.16 -4.95,-18.68 -11.94,-33.16 -20.9,-43.66 -8.95,-10.38 -20.3,-17.52 -34.11,-21.19 -10.24,-2.84 -30.46,-4.31 -60.48,-4.31l-33.1 0z"/>
   <path id="10" class="fil0" d="M3880.28 1830.4l74.2 0 0 244.28c0,38.83 0.95,63.9 2.73,75.35 3.16,18.46 10.58,33.36 22.36,44.48 11.85,11.24 27.97,16.79 48.44,16.79 20.72,0 36.41,-5.24 47,-15.84 10.57,-10.6 16.89,-23.51 19.01,-38.92 2.14,-15.43 3.24,-40.93 3.24,-76.61l0 -249.52 74.21 0 0 237.04c0,54.14 -1.96,92.44 -5.97,114.79 -4,22.35 -11.34,41.24 -22.09,56.66 -10.66,15.43 -25,27.6 -42.91,36.73 -18,9.12 -41.37,13.74 -70.28,13.74 -34.89,0 -61.34,-4.93 -79.33,-14.9 -17.99,-9.97 -32.24,-22.88 -42.74,-38.83 -10.49,-15.95 -17.3,-32.52 -20.63,-50.05 -4.87,-25.81 -7.26,-64 -7.26,-114.48l0 -240.71z"/>
   <path id="11" class="fil0" d="M4484.24 2114.97l71.66 27.07c-11.01,49.64 -29.34,86.47 -54.94,110.6 -25.59,24.03 -58,36.1 -97.32,36.1 -48.7,0 -88.71,-20.46 -120.1,-61.39 -31.29,-40.93 -46.99,-96.85 -46.99,-167.88 0,-75.03 15.78,-133.37 47.25,-174.92 31.48,-41.56 72.93,-62.34 124.27,-62.34 44.87,0 81.29,16.38 109.27,49 16.72,19.31 29.17,47.01 37.54,83.21l-73.19 21.41c-4.35,-23.3 -13.4,-41.76 -27.12,-55.3 -13.81,-13.53 -30.53,-20.25 -50.16,-20.25 -27.21,0 -49.3,11.97 -66.18,35.99 -16.97,23.92 -25.41,62.75 -25.41,116.47 0,56.87 8.36,97.49 24.99,121.62 16.72,24.24 38.39,36.31 65.08,36.31 19.71,0 36.68,-7.66 50.84,-23.09 14.17,-15.43 24.4,-39.56 30.53,-72.61z"/>
   <path id="12" class="fil0" d="M4949.52 2281.19l-79.92 0 -31.64 -102.63 -146.97 0 -30.44 102.63 -78.47 0 142.27 -450.78 78.39 0 146.78 450.78zm-135.62 -178.79l-50.92 -166.84 -49.46 166.84 100.38 0z"/>
   <path id="13" class="fil0" d="M5223.41 2114.97l71.65 27.07c-11.01,49.64 -29.34,86.47 -54.92,110.6 -25.59,24.03 -58.01,36.1 -97.32,36.1 -48.71,0 -88.71,-20.46 -120.1,-61.39 -31.3,-40.93 -46.99,-96.85 -46.99,-167.88 0,-75.03 15.77,-133.37 47.24,-174.92 31.48,-41.56 72.94,-62.34 124.28,-62.34 44.87,0 81.29,16.38 109.27,49 16.72,19.31 29.17,47.01 37.53,83.21l-73.19 21.41c-4.35,-23.3 -13.38,-41.76 -27.12,-55.3 -13.81,-13.53 -30.53,-20.25 -50.15,-20.25 -27.21,0 -49.3,11.97 -66.19,35.99 -16.97,23.92 -25.4,62.75 -25.4,116.47 0,56.87 8.35,97.49 24.99,121.62 16.72,24.24 38.38,36.31 65.08,36.31 19.7,0 36.68,-7.66 50.84,-23.09 14.16,-15.43 24.39,-39.56 30.53,-72.61z"/>
   <polygon id="14" class="fil0" points="5356.04,2281.19 5356.04,1830.4 5430.24,1830.4 5430.24,2281.19 "/>
   <path id="15" class="fil0" d="M5485.43 2058.53c0,-45.96 5.63,-84.57 16.8,-115.84 8.27,-22.97 19.7,-43.65 34.12,-61.91 14.42,-18.25 30.2,-31.79 47.34,-40.71 22.86,-11.86 49.21,-17.85 79.07,-17.85 54.08,0 97.24,20.67 129.74,61.91 32.41,41.34 48.61,98.74 48.61,172.3 0,72.92 -16.12,130 -48.26,171.13 -32.16,41.24 -75.23,61.8 -129.05,61.8 -54.51,0 -97.92,-20.46 -130.08,-61.49 -32.15,-40.91 -48.27,-97.37 -48.27,-169.35zm76.25 -3.04c0,51.1 9.63,89.82 28.83,116.26 19.19,26.34 43.58,39.56 73.09,39.56 29.6,0 53.83,-13.11 72.84,-39.25 18.93,-26.23 28.4,-65.47 28.4,-117.83 0,-51.72 -9.2,-90.35 -27.71,-115.74 -18.43,-25.5 -42.91,-38.19 -73.53,-38.19 -30.53,0 -55.19,12.92 -73.87,38.62 -18.68,25.81 -28.06,64.63 -28.06,116.57z"/>
   <polygon id="16" class="fil0" points="5898.85,2281.19 5898.85,1830.4 5970.66,1830.4 6121.47,2132.5 6121.47,1830.4 6190.05,1830.4 6190.05,2281.19 6115.92,2281.19 5967.43,1984.87 5967.43,2281.19 "/>
   <polygon id="17" class="fil0" points="6493.02,2281.19 6493.02,1906.58 6384.52,1906.58 6384.52,1830.4 6675.2,1830.4 6675.2,1906.58 6567.21,1906.58 6567.21,2281.19 "/>
   <polygon id="18" class="fil0" points="6723.22,2281.19 6723.22,1830.4 6994.46,1830.4 6994.46,1906.58 6797.42,1906.58 6797.42,2006.69 6980.64,2006.69 6980.64,2082.87 6797.42,2082.87 6797.42,2205.01 7001.62,2205.01 7001.62,2281.19 "/>
   <path id="19" class="fil0" d="M7298.96 2114.97l71.65 27.07c-11.01,49.64 -29.34,86.47 -54.94,110.6 -25.59,24.03 -58,36.1 -97.31,36.1 -48.71,0 -88.71,-20.46 -120.1,-61.39 -31.3,-40.93 -47,-96.85 -47,-167.88 0,-75.03 15.78,-133.37 47.25,-174.92 31.48,-41.56 72.93,-62.34 124.28,-62.34 44.87,0 81.29,16.38 109.27,49 16.71,19.31 29.17,47.01 37.53,83.21l-73.19 21.41c-4.35,-23.3 -13.38,-41.76 -27.12,-55.3 -13.81,-13.53 -30.53,-20.25 -50.15,-20.25 -27.21,0 -49.31,11.97 -66.19,35.99 -16.97,23.92 -25.4,62.75 -25.4,116.47 0,56.87 8.35,97.49 24.99,121.62 16.71,24.24 38.38,36.31 65.08,36.31 19.7,0 36.67,-7.66 50.84,-23.09 14.16,-15.43 24.39,-39.56 30.53,-72.61z"/>
   <polygon id="20" class="fil0" points="7434.15,2281.19 7434.15,1830.4 7505.96,1830.4 7656.77,2132.5 7656.77,1830.4 7725.34,1830.4 7725.34,2281.19 7651.22,2281.19 7502.73,1984.87 7502.73,2281.19 "/>
   <polygon id="21" class="fil0" points="7801.17,2281.19 7801.17,1830.4 7875.37,1830.4 7875.37,2281.19 "/>
   <path id="22" class="fil0" d="M8180.3 2114.97l71.66 27.07c-11.01,49.64 -29.34,86.47 -54.94,110.6 -25.59,24.03 -58,36.1 -97.32,36.1 -48.7,0 -88.71,-20.46 -120.1,-61.39 -31.3,-40.93 -46.99,-96.85 -46.99,-167.88 0,-75.03 15.78,-133.37 47.25,-174.92 31.47,-41.56 72.93,-62.34 124.27,-62.34 44.87,0 81.29,16.38 109.27,49 16.72,19.31 29.17,47.01 37.53,83.21l-73.18 21.41c-4.35,-23.3 -13.4,-41.76 -27.12,-55.3 -13.81,-13.53 -30.53,-20.25 -50.16,-20.25 -27.21,0 -49.3,11.97 -66.18,35.99 -16.97,23.92 -25.41,62.75 -25.41,116.47 0,56.87 8.35,97.49 24.99,121.62 16.72,24.24 38.38,36.31 65.08,36.31 19.71,0 36.68,-7.66 50.84,-23.09 14.17,-15.43 24.4,-39.56 30.53,-72.61z"/>
   <path id="23" class="fil0" d="M8300.13 2058.53c0,-45.96 5.63,-84.57 16.8,-115.84 8.28,-22.97 19.7,-43.65 34.12,-61.91 14.43,-18.25 30.2,-31.79 47.35,-40.71 22.86,-11.86 49.21,-17.85 79.06,-17.85 54.08,0 97.24,20.67 129.74,61.91 32.42,41.34 48.62,98.74 48.62,172.3 0,72.92 -16.12,130 -48.27,171.13 -32.16,41.24 -75.23,61.8 -129.05,61.8 -54.51,0 -97.92,-20.46 -130.08,-61.49 -32.15,-40.91 -48.27,-97.37 -48.27,-169.35zm76.26 -3.04c0,51.1 9.63,89.82 28.82,116.26 19.19,26.34 43.58,39.56 73.1,39.56 29.59,0 53.82,-13.11 72.83,-39.25 18.94,-26.23 28.41,-65.47 28.41,-117.83 0,-51.72 -9.21,-90.35 -27.72,-115.74 -18.42,-25.5 -42.91,-38.19 -73.52,-38.19 -30.54,0 -55.2,12.92 -73.87,38.62 -18.69,25.81 -28.06,64.63 -28.06,116.57z"/>
   <path id="24" class="fil0" d="M8855.75 2281.19l0 -450.78 118.64 0c44.95,0 74.21,2.21 87.85,6.72 20.98,6.82 38.56,21.5 52.7,44.17 14.17,22.67 21.24,51.94 21.24,87.83 0,27.7 -4.09,50.89 -12.2,69.78 -8.19,18.88 -18.51,33.68 -31.05,44.49 -12.53,10.7 -25.32,17.84 -38.29,21.3 -17.66,4.31 -43.17,6.5 -76.6,6.5l-48.11 0 0 169.99 -74.2 0zm74.2 -374.6l0 128.44 40.35 0c29.08,0 48.44,-2.41 58.25,-7.13 9.81,-4.72 17.48,-12.07 23.03,-22.25 5.55,-10.08 8.36,-21.72 8.36,-35.15 0,-16.48 -3.92,-30.01 -11.69,-40.72 -7.85,-10.71 -17.66,-17.42 -29.68,-20.15 -8.79,-1.99 -26.45,-3.04 -53.06,-3.04l-35.57 0z"/>
   <path id="25" class="fil0" d="M9197.09 2281.19l0 -450.78 155.83 0c39.15,0 67.64,4.1 85.38,12.18 17.83,8.08 31.98,22.45 42.66,43.12 10.65,20.78 16.02,44.39 16.02,71.04 0,33.89 -8.02,61.8 -24.13,83.84 -16.12,22.04 -40.17,35.88 -72.25,41.65 15.96,11.44 29.09,24.03 39.41,37.78 10.4,13.74 24.39,38.19 41.96,73.24l44.7 87.93 -88.46 0 -53.05 -98.42c-19.01,-34.94 -32.06,-56.98 -39.14,-66.1 -6.99,-9.03 -14.42,-15.32 -22.27,-18.68 -7.93,-3.36 -20.39,-5.03 -37.44,-5.03l-15.01 0 0 188.24 -74.21 0zm74.21 -260.02l54.76 0c35.48,0 57.57,-1.89 66.44,-5.56 8.79,-3.67 15.77,-10.07 20.72,-19.1 5.03,-9.03 7.51,-20.36 7.51,-33.89 0,-15.22 -3.33,-27.39 -9.89,-36.84 -6.57,-9.33 -15.87,-15.21 -27.8,-17.63 -6.06,-1.04 -24.06,-1.57 -54,-1.57l-57.74 0 0 114.58z"/>
   <path id="26" class="fil0" d="M9551.32 2058.53c0,-45.96 5.62,-84.57 16.8,-115.84 8.27,-22.97 19.69,-43.65 34.11,-61.91 14.43,-18.25 30.2,-31.79 47.35,-40.71 22.86,-11.86 49.21,-17.85 79.07,-17.85 54.07,0 97.23,20.67 129.73,61.91 32.42,41.34 48.62,98.74 48.62,172.3 0,72.92 -16.12,130 -48.27,171.13 -32.16,41.24 -75.23,61.8 -129.05,61.8 -54.5,0 -97.92,-20.46 -130.07,-61.49 -32.16,-40.91 -48.27,-97.37 -48.27,-169.35zm76.25 -3.04c0,51.1 9.63,89.82 28.82,116.26 19.19,26.34 43.58,39.56 73.1,39.56 29.59,0 53.82,-13.11 72.83,-39.25 18.94,-26.23 28.41,-65.47 28.41,-117.83 0,-51.72 -9.21,-90.35 -27.72,-115.74 -18.42,-25.5 -42.91,-38.19 -73.52,-38.19 -30.54,0 -55.2,12.92 -73.87,38.62 -18.69,25.81 -28.06,64.63 -28.06,116.57z"/>
   <path id="27" class="fil0" d="M9964.74 1830.4l134.93 0c30.45,0 53.65,2.84 69.6,8.61 21.41,7.77 39.83,21.61 55.1,41.55 15.35,19.83 26.96,44.18 34.97,73.03 7.92,28.75 11.94,64.32 11.94,106.5 0,37.14 -3.75,69.04 -11.26,95.9 -9.13,32.85 -22.18,59.4 -39.15,79.64 -12.79,15.43 -30.1,27.39 -51.86,35.99 -16.29,6.4 -38.04,9.55 -65.34,9.55l-138.93 0 0 -450.78zm74.2 76.18l0 298.42 55.02 0c20.56,0 35.39,-1.47 44.52,-4.31 12.03,-3.67 21.92,-9.97 29.76,-18.77 7.94,-8.82 14.33,-23.3 19.28,-43.45 5.03,-20.14 7.51,-47.74 7.51,-82.58 0,-34.84 -2.47,-61.48 -7.51,-80.16 -4.95,-18.68 -11.95,-33.16 -20.9,-43.66 -8.95,-10.38 -20.31,-17.52 -34.11,-21.19 -10.24,-2.84 -30.46,-4.31 -60.48,-4.31l-33.1 0z"/>
   <path id="28" class="fil0" d="M10334.32 1830.4l74.2 0 0 244.28c0,38.83 0.94,63.9 2.73,75.35 3.16,18.46 10.58,33.36 22.35,44.48 11.86,11.24 27.98,16.79 48.44,16.79 20.73,0 36.42,-5.24 47,-15.84 10.58,-10.6 16.9,-23.51 19.02,-38.92 2.13,-15.43 3.24,-40.93 3.24,-76.61l0 -249.52 74.2 0 0 237.04c0,54.14 -1.96,92.44 -5.96,114.79 -4.01,22.35 -11.34,41.24 -22.09,56.66 -10.67,15.43 -25,27.6 -42.92,36.73 -17.99,9.12 -41.36,13.74 -70.28,13.74 -34.88,0 -61.33,-4.93 -79.32,-14.9 -17.99,-9.97 -32.24,-22.88 -42.74,-38.83 -10.49,-15.95 -17.31,-32.52 -20.63,-50.05 -4.87,-25.81 -7.26,-64 -7.26,-114.48l0 -240.71z"/>
   <path id="29" class="fil0" d="M10938.28 2114.97l71.66 27.07c-11.01,49.64 -29.34,86.47 -54.94,110.6 -25.59,24.03 -58,36.1 -97.32,36.1 -48.7,0 -88.71,-20.46 -120.1,-61.39 -31.3,-40.93 -46.99,-96.85 -46.99,-167.88 0,-75.03 15.77,-133.37 47.24,-174.92 31.48,-41.56 72.94,-62.34 124.28,-62.34 44.87,0 81.29,16.38 109.27,49 16.72,19.31 29.17,47.01 37.53,83.21l-73.19 21.41c-4.35,-23.3 -13.38,-41.76 -27.12,-55.3 -13.8,-13.53 -30.52,-20.25 -50.15,-20.25 -27.21,0 -49.3,11.97 -66.18,35.99 -16.97,23.92 -25.41,62.75 -25.41,116.47 0,56.87 8.35,97.49 24.99,121.62 16.72,24.24 38.38,36.31 65.08,36.31 19.71,0 36.68,-7.66 50.84,-23.09 14.17,-15.43 24.39,-39.56 30.53,-72.61z"/>
   <polygon id="30" class="fil0" points="11155.88,2281.19 11155.88,1906.58 11047.38,1906.58 11047.38,1830.4 11338.06,1830.4 11338.06,1906.58 11230.08,1906.58 11230.08,2281.19 "/>
   <polygon id="31" class="fil0" points="11383.52,2281.19 11383.52,1830.4 11457.73,1830.4 11457.73,2281.19 "/>
   <polygon id="32" class="fil0" points="11622,2281.19 11490.91,1830.4 11571.08,1830.4 11664.14,2164.08 11753.44,1830.4 11832.26,1830.4 11701.92,2281.19 "/>
   <path id="33" class="fil0" d="M12161.74 2281.19l-79.92 0 -31.64 -102.63 -146.97 0 -30.44 102.63 -78.47 0 142.27 -450.78 78.39 0 146.78 450.78zm-135.62 -178.79l-50.91 -166.84 -49.47 166.84 100.38 0z"/>
   <path id="34" class="fil0" d="M12324.4 1830.4l134.93 0c30.46,0 53.65,2.84 69.6,8.61 21.41,7.77 39.84,21.61 55.1,41.55 15.35,19.83 26.96,44.18 34.97,73.03 7.93,28.75 11.94,64.32 11.94,106.5 0,37.14 -3.75,69.04 -11.26,95.9 -9.12,32.85 -22.17,59.4 -39.14,79.64 -12.8,15.43 -30.12,27.39 -51.86,35.99 -16.29,6.4 -38.04,9.55 -65.34,9.55l-138.94 0 0 -450.78zm74.2 76.18l0 298.42 55.02 0c20.56,0 35.4,-1.47 44.52,-4.31 12.03,-3.67 21.92,-9.97 29.77,-18.77 7.93,-8.82 14.32,-23.3 19.27,-43.45 5.03,-20.14 7.51,-47.74 7.51,-82.58 0,-34.84 -2.47,-61.48 -7.51,-80.16 -4.95,-18.68 -11.94,-33.16 -20.89,-43.66 -8.96,-10.38 -20.31,-17.52 -34.12,-21.19 -10.24,-2.84 -30.46,-4.31 -60.48,-4.31l-33.1 0z"/>
   <polygon id="35" class="fil0" points="12693.98,2281.19 12693.98,1830.4 12965.21,1830.4 12965.21,1906.58 12768.19,1906.58 12768.19,2006.69 12951.4,2006.69 12951.4,2082.87 12768.19,2082.87 12768.19,2205.01 12972.38,2205.01 12972.38,2281.19 "/>
   <path class="fil0" d="M134.26 2872.13l-132.73 0 0 -103.2c0,-41.87 3.4,-74.81 10.17,-98.82 6.79,-24.17 19.21,-45.91 37.46,-65 18.24,-19.27 41.65,-34.34 69.91,-45.2l25.83 59.92c-26.32,9.64 -45.04,22.95 -56.51,39.96 -11.47,17.17 -17.44,39.95 -18.09,68.33l63.94 0 0 144.02zm221.86 0l-132.73 0 0 -103.2c0,-42.05 3.39,-75.17 10.17,-99.16 6.78,-24.01 19.38,-45.56 37.78,-64.66 18.41,-19.27 41.67,-34.34 69.6,-45.2l25.83 59.92c-26.32,9.64 -45.04,22.95 -56.52,39.96 -11.46,17.17 -17.43,39.95 -18.08,68.33l63.94 0 0 144.02z"/>
   <path id="1" class="fil0" d="M456.87 3076.09l136.6 -14.72c8.24,49.58 24.69,85.85 49.73,109.15 25.02,23.31 58.76,34.87 101.24,34.87 44.88,0 78.79,-10.33 101.55,-31.01 22.77,-20.67 34.23,-44.86 34.23,-72.54 0,-17.87 -4.85,-32.94 -14.36,-45.55 -9.54,-12.44 -26.32,-23.3 -50.22,-32.41 -16.3,-6.31 -53.44,-17.18 -111.57,-32.94 -74.76,-20.33 -127.23,-45.21 -157.44,-74.82 -42.46,-41.52 -63.61,-92.16 -63.61,-151.91 0,-38.37 10.01,-74.46 29.87,-107.93 20.02,-33.46 48.77,-58.87 86.38,-76.39 37.62,-17.52 82.84,-26.28 136.11,-26.28 86.72,0 152.11,20.85 195.86,62.72 43.93,41.87 66.85,97.59 69.11,167.51l-140.48 5.25c-5.97,-38.89 -18.73,-66.76 -38.27,-83.75 -19.53,-17 -48.92,-25.58 -87.99,-25.58 -40.37,0 -72.02,9.11 -94.79,27.33 -14.7,11.74 -22.12,27.33 -22.12,46.96 0,17.87 6.94,33.11 20.83,45.73 17.61,16.29 60.39,33.11 128.36,50.63 67.99,17.35 118.2,35.57 150.65,54.14 32.62,18.75 58.14,44.16 76.53,76.57 18.41,32.42 27.61,72.36 27.61,119.85 0,43.1 -10.99,83.58 -33.11,121.25 -22.11,37.67 -53.28,65.7 -93.65,83.92 -40.36,18.4 -90.74,27.51 -150.97,27.51 -87.67,0 -155,-21.9 -201.98,-65.88 -46.99,-43.8 -74.92,-107.75 -84.12,-191.68z"/>
   <path id="2" class="fil0" d="M1764.73 3319.98l-151.3 0 -59.91 -171.36 -278.2 0 -57.65 171.36 -148.54 0 269.33 -752.72 148.39 0 277.88 752.72zm-256.73 -298.57l-96.4 -278.58 -93.65 278.58 190.05 0z"/>
   <polygon id="3" class="fil0" points="1839.48,3319.98 1839.48,2567.27 1975.44,2567.27 2260.9,3071.7 2260.9,2567.27 2390.72,2567.27 2390.72,3319.98 2250.41,3319.98 1969.31,2825.18 1969.31,3319.98 "/>
   <polygon id="4" class="fil0" points="2806.33,3319.98 2806.33,2567.27 3016.72,2567.27 3141.04,3080.64 3263.93,2567.27 3474.8,2567.27 3474.8,3319.98 3344.98,3319.98 3344.49,2727.41 3207.74,3319.98 3072.74,3319.98 2936.63,2727.41 2936.14,3319.98 "/>
   <path id="5" class="fil0" d="M4240.14 3319.98l-151.3 0 -59.91 -171.36 -278.2 0 -57.64 171.36 -148.55 0 269.33 -752.72 148.39 0 277.88 752.72zm-256.73 -298.57l-96.39 -278.58 -93.65 278.58 190.04 0z"/>
   <path id="6" class="fil0" d="M4314.89 3319.98l0 -752.72 294.99 0c74.12,0 128.04,6.83 161.64,20.32 33.74,13.5 60.54,37.5 80.73,72.02 20.18,34.69 30.36,74.12 30.36,118.62 0,56.59 -15.18,103.2 -45.7,140 -30.52,36.8 -76.05,59.93 -136.76,69.56 30.19,19.1 55.06,40.12 74.61,63.08 19.69,22.95 46.17,63.77 79.44,122.3l84.6 146.83 -167.44 0 -100.43 -164.35c-36,-58.35 -60.71,-95.14 -74.12,-110.39 -13.25,-15.06 -27.29,-25.58 -42.14,-31.19 -15.01,-5.61 -38.58,-8.4 -70.88,-8.4l-28.41 0 0 314.33 -140.49 0zm140.49 -434.18l103.66 0c67.16,0 108.98,-3.16 125.77,-9.29 16.64,-6.14 29.88,-16.82 39.25,-31.89 9.53,-15.07 14.21,-33.99 14.21,-56.6 0,-25.4 -6.31,-45.73 -18.73,-61.49 -12.44,-15.59 -30.03,-25.41 -52.63,-29.44 -11.48,-1.75 -45.53,-2.63 -102.21,-2.63l-109.31 0 0 191.33z"/>
   <polygon id="7" class="fil0" points="5170.5,3319.98 5170.5,2694.47 4965.12,2694.47 4965.12,2567.27 5515.38,2567.27 5515.38,2694.47 5310.97,2694.47 5310.97,3319.98 "/>
   <polygon id="8" class="fil0" points="5601.44,3319.98 5601.44,2567.27 5741.92,2567.27 5741.92,3319.98 "/>
   <polygon id="9" class="fil0" points="5875.45,3319.98 5875.45,2567.27 6011.4,2567.27 6296.86,3071.7 6296.86,2567.27 6426.69,2567.27 6426.69,3319.98 6286.38,3319.98 6005.26,2825.18 6005.26,3319.98 "/>
   <path id="10" class="fil0" d="M6844.24 2567.27l255.43 0c57.65,0 101.56,4.73 131.76,14.36 40.53,12.97 75.4,36.1 104.3,69.38 29.06,33.12 51.03,73.77 66.2,121.95 15.01,48 22.6,107.4 22.6,177.84 0,62.03 -7.11,115.29 -21.32,160.15 -17.26,54.85 -41.98,99.18 -74.11,132.99 -24.22,25.76 -57,45.73 -98.17,60.1 -30.83,10.7 -72.01,15.95 -123.68,15.95l-263.02 0 0 -752.72zm140.48 127.21l0 498.3 104.15 0c38.91,0 67.01,-2.45 84.28,-7.18 22.77,-6.13 41.5,-16.65 56.35,-31.37 15.01,-14.72 27.12,-38.89 36.49,-72.54 9.53,-33.64 14.21,-79.71 14.21,-137.89 0,-58.17 -4.68,-102.68 -14.21,-133.87 -9.37,-31.18 -22.61,-55.36 -39.56,-72.89 -16.96,-17.35 -38.43,-29.26 -64.6,-35.39 -19.37,-4.73 -57.64,-7.18 -114.47,-7.18l-62.65 0z"/>
   <polygon id="11" class="fil0" points="7543.86,3319.98 7543.86,2567.27 8057.31,2567.27 8057.31,2694.47 7684.34,2694.47 7684.34,2861.62 8031.16,2861.62 8031.16,2988.83 7684.34,2988.83 7684.34,3192.78 8070.88,3192.78 8070.88,3319.98 "/>
   <path id="12" class="fil0" d="M8459.21 3319.98l0 -752.72 224.6 0c85.09,0 140.48,3.68 166.32,11.21 39.71,11.39 72.97,35.92 99.78,73.77 26.8,37.84 40.2,86.73 40.2,146.66 0,46.25 -7.75,84.98 -23.08,116.51 -15.51,31.54 -35.05,56.25 -58.77,74.29 -23.74,17.87 -47.96,29.78 -72.5,35.57 -33.43,7.18 -81.7,10.86 -144.99,10.86l-91.08 0 0 283.85 -140.48 0zm140.48 -625.51l0 214.46 76.38 0c55.06,0 91.7,-4.02 110.28,-11.91 18.57,-7.88 33.1,-20.15 43.59,-37.14 10.5,-16.82 15.82,-36.27 15.82,-58.7 0,-27.51 -7.43,-50.11 -22.12,-67.99 -14.85,-17.87 -33.42,-29.08 -56.19,-33.64 -16.64,-3.33 -50.06,-5.08 -100.44,-5.08l-67.33 0z"/>
   <path id="13" class="fil0" d="M9076.33 2948.17c0,-76.74 10.65,-141.22 31.8,-193.43 15.66,-38.37 37.3,-72.9 64.58,-103.38 27.29,-30.49 57.16,-53.09 89.62,-67.99 43.28,-19.8 93.16,-29.78 149.68,-29.78 102.36,0 184.07,34.51 245.58,103.38 61.36,69.03 92.03,164.87 92.03,287.7 0,121.77 -30.51,217.09 -91.39,285.78 -60.87,68.86 -142.41,103.2 -244.29,103.2 -103.18,0 -185.36,-34.17 -246.24,-102.68 -60.88,-68.33 -91.38,-162.6 -91.38,-282.8zm144.34 -5.08c0,85.33 18.24,149.98 54.58,194.14 36.33,43.98 82.51,66.06 138.37,66.06 56.03,0 101.89,-21.91 137.89,-65.54 35.84,-43.8 53.77,-109.33 53.77,-196.77 0,-86.37 -17.44,-150.86 -52.49,-193.26 -34.87,-42.57 -81.2,-63.77 -139.17,-63.77 -57.8,0 -104.47,21.56 -139.83,64.48 -35.37,43.1 -53.12,107.93 -53.12,194.66z"/>
   <path id="14" class="fil0" d="M9858.94 3319.98l0 -752.72 295 0c74.11,0 128.04,6.83 161.63,20.32 33.75,13.5 60.55,37.5 80.73,72.02 20.18,34.69 30.36,74.12 30.36,118.62 0,56.59 -15.18,103.2 -45.7,140 -30.52,36.8 -76.05,59.93 -136.76,69.56 30.2,19.1 55.07,40.12 74.61,63.08 19.69,22.95 46.18,63.77 79.44,122.3l84.6 146.83 -167.43 0 -100.44 -164.35c-36,-58.35 -60.71,-95.14 -74.12,-110.39 -13.24,-15.06 -27.29,-25.58 -42.13,-31.19 -15.02,-5.61 -38.59,-8.4 -70.88,-8.4l-28.42 0 0 314.33 -140.49 0zm140.49 -434.18l103.66 0c67.16,0 108.98,-3.16 125.78,-9.29 16.64,-6.14 29.88,-16.82 39.24,-31.89 9.53,-15.07 14.21,-33.99 14.21,-56.6 0,-25.4 -6.3,-45.73 -18.73,-61.49 -12.43,-15.59 -30.03,-25.41 -52.63,-29.44 -11.47,-1.75 -45.53,-2.63 -102.21,-2.63l-109.31 0 0 191.33z"/>
   <path id="15" class="fil0" d="M10558.56 3319.98l0 -752.72 294.99 0c74.12,0 128.04,6.83 161.64,20.32 33.74,13.5 60.54,37.5 80.73,72.02 20.18,34.69 30.36,74.12 30.36,118.62 0,56.59 -15.18,103.2 -45.7,140 -30.52,36.8 -76.05,59.93 -136.76,69.56 30.19,19.1 55.06,40.12 74.61,63.08 19.69,22.95 46.17,63.77 79.44,122.3l84.6 146.83 -167.44 0 -100.43 -164.35c-36,-58.35 -60.71,-95.14 -74.12,-110.39 -13.25,-15.06 -27.29,-25.58 -42.14,-31.19 -15.01,-5.61 -38.58,-8.4 -70.87,-8.4l-28.42 0 0 314.33 -140.49 0zm140.49 -434.18l103.66 0c67.16,0 108.98,-3.16 125.77,-9.29 16.64,-6.14 29.88,-16.82 39.25,-31.89 9.53,-15.07 14.21,-33.99 14.21,-56.6 0,-25.4 -6.31,-45.73 -18.73,-61.49 -12.44,-15.59 -30.03,-25.41 -52.63,-29.44 -11.48,-1.75 -45.53,-2.63 -102.21,-2.63l-109.31 0 0 191.33z"/>
   <polygon id="16" class="fil0" points="11258.19,3319.98 11258.19,2567.27 11771.64,2567.27 11771.64,2694.47 11398.66,2694.47 11398.66,2861.62 11745.49,2861.62 11745.49,2988.83 11398.66,2988.83 11398.66,3192.78 11785.21,3192.78 11785.21,3319.98 "/>
   <path id="17" class="fil0" d="M11867.56 3076.09l136.6 -14.72c8.24,49.58 24.69,85.85 49.73,109.15 25.02,23.31 58.77,34.87 101.24,34.87 44.88,0 78.79,-10.33 101.55,-31.01 22.77,-20.67 34.23,-44.86 34.23,-72.54 0,-17.87 -4.85,-32.94 -14.36,-45.55 -9.53,-12.44 -26.32,-23.3 -50.22,-32.41 -16.3,-6.31 -53.43,-17.18 -111.56,-32.94 -74.77,-20.33 -127.24,-45.21 -157.44,-74.82 -42.47,-41.52 -63.62,-92.16 -63.62,-151.91 0,-38.37 10.01,-74.46 29.87,-107.93 20.04,-33.46 48.77,-58.87 86.4,-76.39 37.61,-17.52 82.83,-26.28 136.11,-26.28 86.71,0 152.1,20.85 195.86,62.72 43.92,41.87 66.85,97.59 69.1,167.51l-140.47 5.25c-5.98,-38.89 -18.73,-66.76 -38.28,-83.75 -19.53,-17 -48.92,-25.58 -87.99,-25.58 -40.37,0 -72.02,9.11 -94.79,27.33 -14.7,11.74 -22.12,27.33 -22.12,46.96 0,17.87 6.94,33.11 20.83,45.73 17.61,16.29 60.4,33.11 128.36,50.63 67.99,17.35 118.2,35.57 150.66,54.14 32.61,18.75 58.12,44.16 76.52,76.57 18.41,32.42 27.61,72.36 27.61,119.85 0,43.1 -10.98,83.58 -33.11,121.25 -22.11,37.67 -53.27,65.7 -93.65,83.92 -40.36,18.4 -90.73,27.51 -150.96,27.51 -87.68,0 -155.01,-21.9 -201.99,-65.88 -46.98,-43.8 -74.92,-107.75 -84.12,-191.68z"/>
   <path id="18" class="fil0" d="M12762.71 2567.27l132.73 0 0 103.55c0,41.7 -3.39,74.46 -10.17,98.47 -6.78,23.83 -19.38,45.55 -37.62,64.83 -18.4,19.27 -41.65,34.51 -69.59,45.38l-26 -59.92c26.49,-9.64 45.38,-22.95 56.84,-39.95 11.62,-17.18 17.44,-39.96 17.76,-68.34l-63.95 0 0 -144.02zm-222.81 0l132.71 0 0 103.55c0,41.7 -3.22,74.46 -9.84,98.47 -6.62,23.83 -19.21,45.55 -37.62,64.83 -18.41,19.27 -41.82,34.51 -70.07,45.38l-25.84 -59.92c26.64,-9.64 45.53,-22.95 56.83,-39.95 11.14,-17.18 17.12,-39.96 17.76,-68.34l-63.93 0 0 -144.02z"/>
  </g>
 </g>
</svg>
