<?xml version="1.0" encoding="UTF-8"?>
<!DOCTYPE svg PUBLIC "-//W3C//DTD SVG 1.1//EN" "http://www.w3.org/Graphics/SVG/1.1/DTD/svg11.dtd">
<!-- Creator: CorelDRAW 2018 (64 Bit Versión de evaluación) -->
<svg xmlns="http://www.w3.org/2000/svg" xml:space="preserve" width="124.002mm" height="14.6154mm" version="1.1" style="shape-rendering:geometricPrecision; text-rendering:geometricPrecision; image-rendering:optimizeQuality; fill-rule:evenodd; clip-rule:evenodd"
viewBox="0 0 12883.23 1518.47"
 xmlns:xlink="http://www.w3.org/1999/xlink">
 <defs>
  <style type="text/css">
   <![CDATA[
    .fil0 {fill:#FEFEFE;fill-rule:nonzero}
   ]]>
  </style>
 </defs>
 <g id="Capa_x0020_1">
  <metadata id="CorelCorpID_0Corel-Layer"/>
  <path class="fil0" d="M-0 754.11c0,411.89 281.24,752.06 624.62,752.06 192.94,0 307.4,-118.85 362.99,-118.85 81.77,0 156.98,-188.53 156.98,-278.7 0,-51.23 -22.89,-120.9 -70.31,-120.9 -50.69,0 -81.76,141.4 -289.42,141.4 -228.91,0 -358.09,-258.2 -358.09,-561.49 0,-112.71 52.32,-260.25 178.23,-260.25 291.04,0 248.53,362.71 416.94,362.71 96.49,0 152.08,-98.36 152.08,-215.17 0,-227.46 -88.3,-356.56 -156.98,-356.56 -27.8,0 -37.61,14.34 -73.59,14.34 -42.5,0 -145.52,-100.4 -305.76,-100.4 -322.12,0 -637.7,321.72 -637.7,741.81z"/>
  <path id="1" class="fil0" d="M1568.09 40.99c-67.04,0 -204.39,-20.49 -204.39,104.51 0,145.5 124.27,-16.39 135.72,297.14 16.35,370.91 14.72,334.02 -4.9,706.98 -11.44,217.21 -122.63,127.05 -122.63,239.76 0,26.64 1.63,88.11 109.55,88.11l672.04 0c55.59,0 101.38,6.15 137.35,10.24 34.34,6.15 60.5,12.3 71.95,12.3 65.4,0 153.7,-250 153.7,-389.36 0,-57.37 -26.16,-131.15 -78.48,-131.15 -134.09,0 -39.25,288.94 -373.9,288.94 -172.24,0 -188.59,14.34 -188.59,-284.84 0,-65.58 -1.63,-143.45 67.31,-143.45 165.14,0 63.77,215.17 165.14,215.17 97.84,0 109.29,-245.91 109.29,-329.92 0,-79.93 -6.54,-311.49 -101.1,-311.49 -116.09,0 -22.9,227.47 -147.17,227.47 -100.01,0 -104.92,-4.1 -104.92,-122.95 0,-235.67 -17.97,-276.65 164.06,-276.65 310.13,0 205.48,196.73 334.66,196.73 63.77,0 85.03,-79.92 85.03,-147.54 0,-90.16 -39.25,-290.99 -132.45,-290.99 -26.16,0 -57.23,40.99 -275.79,40.99l-471.47 0z"/>
  <path id="2" class="fil0" d="M3083.87 40.99c-65.41,0 -109.56,-8.2 -140.62,-14.35 -31.08,-8.19 -49.06,-14.34 -60.5,-14.34 -93.2,0 -210.94,227.46 -210.94,401.64 0,73.78 37.61,147.55 101.38,147.55 132.45,0 168.41,-241.81 241.99,-241.81 22.9,0 57.24,-2.06 50.69,213.11l-13.08 452.88c-1.63,51.23 -8.18,174.18 -24.52,217.21 -32.71,77.87 -134.09,34.84 -134.09,143.45 0,157.79 305.77,153.69 389.16,153.69 305.77,0 336.84,-90.17 336.84,-153.69 0,-143.45 -150.43,-26.64 -150.43,-270.5l0 -629.11c0,-16.39 -6.55,-127.04 57.23,-127.04 83.4,0 81.76,241.81 224.01,241.81 83.4,0 125.91,-67.63 125.91,-170.09 0,-221.32 -132.45,-379.1 -196.22,-379.1 -31.08,0 -44.16,6.15 -67.04,14.34 -24.52,6.15 -57.23,14.35 -127.53,14.35l-402.24 0z"/>
  <path id="3" class="fil0" d="M4795.85 489.76c0,125.01 -42.51,227.47 -150.43,227.47 -88.3,0 -73.58,-47.14 -73.58,-90.17l0 -307.37c0,-40.99 -1.64,-65.58 62.13,-65.58 109.56,0 161.88,106.56 161.88,235.66zm-600.1 663.94c0,168.04 -119.35,98.37 -119.35,211.07 0,133.19 241.99,135.25 310.67,135.25 73.59,0 309.05,-6.15 309.05,-139.35 0,-118.85 -119.37,-12.29 -124.27,-268.44l0 -118.86c0,-22.53 6.54,-32.78 26.16,-32.78 44.15,0 93.2,10.24 142.25,10.24 227.28,0 433.32,-163.94 433.32,-469.27 0,-307.37 -214.2,-469.26 -436.59,-469.26 -68.67,0 -212.57,28.69 -449.66,28.69 -40.87,0 -80.12,-4.09 -121,-4.09 -50.69,0 -122.64,18.44 -122.64,100.4 0,129.1 152.06,61.47 152.06,215.17l0 801.24z"/>
  <path id="4" class="fil0" d="M5873.41 362.72c3.26,-63.53 1.63,-110.66 62.13,-110.66 94.84,0 114.46,102.46 114.46,202.87 0,127.05 -34.34,200.83 -140.62,200.83 -53.96,0 -45.79,-45.09 -42.51,-98.37l6.55 -194.67zm-385.9 688.52c0,266.4 -122.63,192.63 -122.63,299.19 0,149.6 232.19,149.6 310.68,149.6 264.88,0 305.76,-55.33 305.76,-129.1 0,-98.37 -83.4,-69.67 -96.48,-163.94 -8.18,-57.38 -11.44,-139.35 -11.44,-198.78 0,-129.09 13.07,-135.24 49.05,-135.24 89.93,0 117.73,92.22 135.71,186.47 50.7,270.5 83.41,459.03 345.03,459.03 184.77,0 259.99,-81.97 259.99,-159.84 0,-125 -106.3,-10.24 -125.91,-200.82 -22.89,-221.32 -73.58,-315.58 -188.04,-368.86 -19.63,-10.24 -40.88,-18.44 -40.88,-49.18 0,-24.59 11.45,-30.73 26.17,-40.98 91.56,-55.33 138.98,-174.19 138.98,-297.14 0,-272.55 -214.2,-375.01 -398.97,-375.01 -52.33,0 -106.3,4.1 -158.61,6.15 -53.96,4.1 -106.28,8.2 -158.61,8.2 -32.71,0 -67.04,-4.09 -99.75,-8.2 -34.34,-2.05 -67.04,-6.15 -101.38,-6.15 -65.4,0 -192.94,14.35 -192.94,127.05 0,127.05 124.27,-4.09 124.27,313.54l0 584.02z"/>
  <path id="5" class="fil0" d="M7470.94 1506.17c333.57,0 644.23,-290.98 644.23,-731.57 0,-264.34 -173.32,-762.3 -624.62,-762.3 -356.45,0 -632.78,307.38 -632.78,741.81 0,436.49 268.15,752.06 613.17,752.06zm224.01 -524.6c0,110.66 -42.51,219.27 -142.25,219.27 -176.6,0 -274.7,-489.76 -274.7,-663.94 0,-100.41 45.79,-219.27 137.35,-219.27 191.31,0 279.6,477.47 279.6,663.94z"/>
  <path id="6" class="fil0" d="M9035.76 852.47c181.51,182.39 405.51,145.5 405.51,293.04 0,77.87 -89.93,100.41 -125.9,100.41 -300.87,0 -281.24,-325.83 -397.34,-325.83 -49.05,0 -68.67,55.33 -68.67,110.66 0,104.51 37.6,321.72 116.09,377.06 93.19,63.52 277.97,98.36 385.89,98.36 380.99,0 537.96,-270.49 537.96,-510.25 0,-153.69 -50.69,-256.15 -152.07,-340.16 -189.67,-157.8 -413.68,-114.76 -413.68,-276.65 0,-73.77 53.95,-102.45 104.64,-102.45 170.06,0 233.83,233.61 343.37,233.61 60.5,0 96.48,-69.67 96.48,-139.35 0,-172.13 -124.27,-329.92 -179.86,-329.92 -34.34,0 -57.23,28.69 -80.12,28.69 -24.52,0 -142.25,-57.37 -246.91,-57.37 -317.21,0 -480.71,264.35 -480.71,477.46 0,147.54 65.39,272.55 155.32,362.71z"/>
  <path id="7" class="fil0" d="M10616.94 1168.05c98.1,276.64 111.18,272.55 137.35,276.64 52.32,8.2 111.18,-225.41 147.16,-319.68 39.24,-104.51 91.57,-284.84 142.25,-284.84 57.23,0 24.53,352.46 17.99,387.3 -11.45,65.58 -85.04,77.87 -85.04,149.59 0,131.16 224.02,122.96 291.06,122.96 71.94,0 295.96,6.14 295.96,-131.16 0,-92.21 -98.12,-59.43 -103.01,-209.02 -6.55,-190.58 -16.35,-415.99 -16.35,-446.73 0,-92.21 11.44,-334.02 24.53,-391.39 16.34,-69.67 89.93,-86.07 89.93,-168.04 0,-129.1 -163.52,-135.24 -235.46,-135.24 -215.84,0 -217.47,61.47 -300.87,254.1 -58.87,135.25 -125.9,383.21 -176.59,368.86 -71.95,-20.49 -173.33,-356.57 -230.55,-477.47 -49.05,-104.51 -45.79,-145.48 -237.09,-145.48 -130.81,0 -282.88,28.69 -282.88,145.48 0,84.02 93.2,98.37 109.55,141.4 17.99,47.13 24.53,110.66 24.53,233.61 0,297.14 -14.72,487.72 -27.79,659.85 -13.08,168.03 -111.2,71.72 -111.2,188.53 0,106.56 148.8,112.71 206.02,112.71 63.78,0 238.73,-4.1 238.73,-120.9 0,-110.66 -104.64,-8.2 -104.64,-227.47 0,-67.63 -16.35,-338.12 34.34,-338.12 29.43,0 47.42,61.47 57.23,88.11l94.85 266.4z"/>
  <path id="8" class="fil0" d="M12505.52 489.76c0,125.01 -42.51,227.47 -150.44,227.47 -88.29,0 -73.58,-47.14 -73.58,-90.17l0 -307.37c0,-40.99 -1.63,-65.58 62.14,-65.58 109.55,0 161.88,106.56 161.88,235.66zm-600.1 663.94c0,168.04 -119.37,98.37 -119.37,211.07 0,133.19 242,135.25 310.68,135.25 73.58,0 309.04,-6.15 309.04,-139.35 0,-118.85 -119.37,-12.29 -124.27,-268.44l0 -118.86c0,-22.53 6.55,-32.78 26.16,-32.78 44.15,0 93.2,10.24 142.26,10.24 227.28,0 433.31,-163.94 433.31,-469.27 0,-307.37 -214.2,-469.26 -436.58,-469.26 -68.67,0 -212.57,28.69 -449.66,28.69 -40.88,0 -80.12,-4.09 -121.01,-4.09 -50.68,0 -122.63,18.44 -122.63,100.4 0,129.1 152.06,61.47 152.06,215.17l0 801.24z"/>
 </g>
</svg>
